<svg id="Layer_1" data-name="Layer 1" xmlns="http://www.w3.org/2000/svg" viewBox="0 0 128 128"><title>Calendario</title><path d="M9.31,29.61a23.85,23.85,0,0,1,1.61-3.44,6.65,6.65,0,0,1,5.41-2.92c1-.06,2,0,3.21,0,0,.54,0,1.05,0,1.56a9.87,9.87,0,0,0,1,5.25A6.81,6.81,0,0,0,33.2,27.42c.13-1.36,0-2.73,0-4.16h41.1c0,.84,0,1.67,0,2.5a8.6,8.6,0,0,0,1,4.29A6.82,6.82,0,0,0,88,27.33c.11-1.33,0-2.67,0-4,4.23-.51,7.55.22,9.47,4a7.63,7.63,0,0,1,.76,3.27c.06,8.72,0,17.44,0,26.16a5.12,5.12,0,0,1-.06.56H91.57V43.74H16.14v1q0,22.66,0,45.32c0,1.53.12,1.65,1.63,1.65H57.18v6.74H17.4c-4.27,0-6.76-1.9-7.95-6a2,2,0,0,0-.15-.31Z"/><path d="M89.29,119c-1.63-.32-3.28-.54-4.88-1A26.19,26.19,0,0,1,71,109.79,26.67,26.67,0,0,1,64.55,87,27.35,27.35,0,0,1,94.1,64.42a27.38,27.38,0,0,1,24.61,29.86,26.72,26.72,0,0,1-10.88,19.28,27.59,27.59,0,0,1-13.4,5.32c-.26,0-.51.11-.76.16ZM112,91.65A20.55,20.55,0,1,0,91.49,112.2,20.61,20.61,0,0,0,112,91.65Z"/><path d="M23.07,64.21V50.66H36.58V64.21Z"/><path d="M57.19,64.22H43.64V50.67H57.19Z"/><path d="M64.15,50.64H77.7V64.19H64.15Z"/><path d="M57.19,84.71H43.65V71.18H57.19Z"/><path d="M23.09,71.16H36.56V84.7H23.09Z"/><path d="M29.8,19.78c0,2.3,0,4.61,0,6.91a3.17,3.17,0,0,1-2.07,3.06A3.28,3.28,0,0,1,24,28.9a4.16,4.16,0,0,1-.9-2.28C23,22.07,23,17.53,23,13A3.38,3.38,0,1,1,29.8,13c0,2.24,0,4.49,0,6.73Z"/><path d="M84.58,19.76c0,2.22,0,4.43,0,6.65a3.38,3.38,0,1,1-6.76.07q0-6.73,0-13.47a3.38,3.38,0,1,1,6.76,0C84.6,15.27,84.58,17.51,84.58,19.76Z"/><path d="M84.69,88.19c0-2.3,0-4.6,0-6.91a3.34,3.34,0,0,1,5.94-2.06,4.59,4.59,0,0,1,.75,2.33c.08,3,.06,6.06,0,9.09,0,.82.18,1.1,1,1.08q4.68-.08,9.35,0a3.34,3.34,0,0,1,2.84,5.14A3,3,0,0,1,102,98.43c-4.72,0-9.44,0-14.16,0a3.12,3.12,0,0,1-3.11-3.24C84.66,92.85,84.69,90.52,84.69,88.19Z"/></svg>