<svg id="Layer_1" data-name="Layer 1" xmlns="http://www.w3.org/2000/svg" viewBox="0 0 128 128"><title>Enviar Beat</title><path d="M51.75,51.7l2.44,8.79C56,67,57.81,73.58,59.65,80.12a15.81,15.81,0,0,0,1.21,3c.83,1.58,1.79,1.57,2.65,0a19.16,19.16,0,0,0,1.19-2.8q3-8.43,5.85-16.89a1.22,1.22,0,0,1,1.39-1c2.47,0,4.95,0,7.42,0a1.17,1.17,0,0,1,1.24.77,8.26,8.26,0,0,0,9.9,4.33,8.41,8.41,0,0,0,5.84-9.14,8.31,8.31,0,0,0-7.87-7.18,8,8,0,0,0-7.81,4.58,1.31,1.31,0,0,1-1.4.85c-3.24,0-6.48,0-9.72,0-2.19,0-2.92.54-3.62,2.57-1.09,3.15-2.19,6.31-3.38,9.71-.2-.55-.33-.86-.42-1.18Q58.61,55,55.08,42.14c-.08-.28-.15-.56-.24-.84a2.92,2.92,0,0,0-2.64-2.1,2.85,2.85,0,0,0-2.83,2c-1.32,3.69-2.61,7.4-3.92,11.1-.65,1.85-1.34,3.69-1.93,5.56a1.28,1.28,0,0,1-1.44,1.08q-12.77,0-25.55,0a1.24,1.24,0,0,1-1.4-1,32.08,32.08,0,0,1-1.3-13.25A36.41,36.41,0,0,1,18.6,28.83c3.94-6.56,9.49-11,17.15-12.32C44,15.07,51.1,17.75,57.2,23.28a35.31,35.31,0,0,1,8.16,11.49l.55,1.17c.23-.47.41-.79.56-1.13,3.12-6.64,7.57-12.08,14.2-15.46C93.47,12.81,108,17.83,114.5,31a39.44,39.44,0,0,1,3.73,17.54c.07,10.9-4.13,19.9-12.17,27.07a146.5,146.5,0,0,1-11.67,9.15,145.31,145.31,0,0,0-25.16,22.67,26.7,26.7,0,0,0-1.73,2.25c-.52.74-1,1.54-1.49,2.4-.47-.76-.9-1.54-1.4-2.26a75.66,75.66,0,0,0-10.3-11.4A117.45,117.45,0,0,0,38.13,85.47a56.18,56.18,0,0,1-13.73-13,2.12,2.12,0,0,0-1.92-.92c-3,0-6,0-9,0a2.74,2.74,0,0,1-3-2c-.48-1.44-.56-3,.7-4a3.79,3.79,0,0,1,2.28-.75c9,0,18,0,27.07,0h4.15a3,3,0,0,0,3.2-2.26c1.14-3.22,2.26-6.44,3.4-9.66C51.44,52.5,51.56,52.21,51.75,51.7Z"/></svg>