<svg id="Layer_2" data-name="Layer 2" xmlns="http://www.w3.org/2000/svg" viewBox="0 0 128 128"><title>CONSULTORIOS 1</title><path d="M105,43.94c-.11,9.61-2.29,17.32-7.12,24.11-4.47,6.29-9.27,12.35-13.85,18.56-3.52,4.78-7.1,9.52-10.33,14.49a48.74,48.74,0,0,0-7.71,21c-.14,1.13-.69,1.85-1.79,1.83s-1.63-.73-1.76-1.86c-1.2-10.11-5.68-18.84-11.6-26.88-4.9-6.65-10.14-13-15.11-19.65C32.1,70.65,28.56,65.74,26.28,60,17,36.72,31.55,9.94,56.21,5.17a40.72,40.72,0,0,1,48,32C104.72,39.84,104.86,42.55,105,43.94Zm-40.75-28a29.24,29.24,0,1,0,29.2,29.49A29.28,29.28,0,0,0,64.28,15.92Z"/><path d="M70.45,51.39c0,3.51,0,6.83,0,10.14,0,2.85-.45,3.28-3.34,3.28-2.16,0-4.32,0-6.48,0-1.91,0-2.6-.73-2.6-2.66,0-3.52,0-7,0-10.7-.54,0-1-.07-1.42-.07H47.14c-1.79,0-2.53-.72-2.54-2.46q0-3.8,0-7.6c0-1.63.73-2.36,2.35-2.37,3.28,0,6.56,0,9.84,0,1,0,1.27-.32,1.26-1.29C58,34.44,58,31.2,58,28c0-1.72.7-2.42,2.4-2.43,2.58,0,5.15,0,7.73,0,1.58,0,2.28.7,2.29,2.28,0,3.24,0,6.48,0,9.72,0,1.07.25,1.46,1.38,1.43,3.15-.07,6.31,0,9.47,0,1.94,0,2.62.68,2.62,2.62q0,3.55,0,7.1c0,2.07-.67,2.72-2.78,2.72Z"/></svg>