<?xml version="1.0" encoding="utf-8"?>
<!-- Generator: Adobe Illustrator 16.0.0, SVG Export Plug-In . SVG Version: 6.00 Build 0)  -->
<!DOCTYPE svg PUBLIC "-//W3C//DTD SVG 1.1//EN" "http://www.w3.org/Graphics/SVG/1.1/DTD/svg11.dtd">
<svg version="1.1" id="Capa_1" xmlns="http://www.w3.org/2000/svg" xmlns:xlink="http://www.w3.org/1999/xlink" x="0px" y="0px"
	 width="512px" height="512px" viewBox="0 0 512 512" enable-background="new 0 0 512 512" xml:space="preserve">
<path d="M256.577,50.221h232.978c3.152-0.106,6.306,0.086,9.423,0.576c7.162,1.296,12.503,7.332,12.918,14.599c0,1.638,0,3.318,0,5
	c0,122.992,0,245.985,0,368.975c0,14.556-5.75,20.353-20.218,20.353H19.794c-13.494,0-19.644-6.062-19.644-19.421
	c0-123.494,0-246.988,0-370.482c0-13.538,6.017-19.599,19.467-19.599H256.577z M246.932,255.503L246.932,255.503
	c0-39.494,0-78.986,0-118.48c0-7.167-2.875-10.131-9.91-10.131H52.268c-7.345,0-10.22,2.876-10.22,10.353c0,13.848,0,27.651,0,41.5
	c0,64.327,0,128.656,0,192.983c0,8.405,2.699,11.416,10.264,11.416H236.8c7.742,0,10.397-2.744,10.397-10.621
	C247.167,333.502,247.079,294.494,246.932,255.503z M379.657,173.125L379.657,173.125c24.996,0,49.95,0,74.944,0
	c6.316,0.458,12.339-2.717,15.53-8.185c6.856-11.502-1.637-24.952-15.926-24.952c-49.464,0-98.911,0-148.344,0
	c-9.317-0.88-17.584,5.959-18.463,15.276c-0.045,0.481-0.07,0.964-0.075,1.447c0,9.601,7.564,16.237,18.271,16.237L379.657,173.125z
	 M380.231,336.819c-25.129,0-50.302,0-75.211,0c-9.023-0.54-16.776,6.338-17.316,15.363c-0.025,0.439-0.034,0.878-0.025,1.315
	c0.12,9.154,7.615,16.487,16.767,16.414c50.141,0,100.283,0,150.423,0c5.089,0.205,9.987-1.95,13.273-5.839
	c5.937-6.915,5.145-17.334-1.77-23.271c-3.027-2.601-6.895-4.015-10.885-3.982H380.231z M379.657,304.213L379.657,304.213
	c25.129,0,50.303,0,75.211,0c8.925,0.561,16.617-6.217,17.179-15.144c0.021-0.335,0.031-0.67,0.031-1.005
	c0.228-9.136-6.994-16.725-16.13-16.953c-0.359-0.009-0.721-0.007-1.08,0.009c-3.009,0-5.973,0-8.849,0H305.641
	c-6.834-0.558-13.33,3.057-16.458,9.159c-4.207,7.975-1.152,17.848,6.823,22.055c2.489,1.313,5.275,1.96,8.087,1.879
	C329.223,304.301,354.396,304.213,379.657,304.213z M380.145,205.775L380.145,205.775c-24.481,0-48.961,0-73.442,0
	c-2.65-0.104-5.304,0.18-7.875,0.841c-7.574,2.338-12.309,9.854-11.148,17.696c1.195,8.872,9.183,15.218,18.095,14.378
	c49.462,0,98.911,0,148.343,0c10.928,0,18.316-6.991,18.183-16.945c-0.132-9.955-7.432-16.148-18.227-16.148L380.145,205.775z"/>
<path d="M107.658,281.12c20.219,27.118,52.25,28.757,74.061,0c16.237,7.166,33.668,12.032,48.224,23.05
	c1.516,1.041,2.576,2.624,2.964,4.424c0,19.332,0,38.666-0.265,58.001c-0.1,0.619-0.264,1.227-0.487,1.814H56.338
	c0-1.727-0.266-3.319-0.266-4.913c0-17.696,0-34.993,0-52.514c-0.402-3.028,1.089-5.994,3.76-7.476
	c8.141-4.424,16.281-8.85,24.643-12.964C92.085,287.225,99.739,284.393,107.658,281.12z"/>
<path d="M192.16,208.297c-0.5,5.105,0.516,10.245,2.92,14.776c3.552,7.025,3.235,15.386-0.841,22.121
	c-5.884,12.556-12.825,24.589-20.75,35.969c-16.015,21.546-44.241,20.44-59.284-1.77c-6.982-10.414-13.193-21.327-18.582-32.651
	c-1.971-5.609-3.061-11.489-3.23-17.431c-0.34-1.998,0.122-4.048,1.283-5.708c4.822-4.822,3.583-10.75,3.451-16.369
	c-0.62-34.731,25.483-51.011,56.187-46.542c22.52,3.273,34.199,14.998,38.048,36.146
	C191.861,200.638,192.127,204.465,192.16,208.297z"/>
</svg>
