<svg id="Layer_2" data-name="Layer 2" xmlns="http://www.w3.org/2000/svg" viewBox="0 0 128 128"><title>Equipo y Equipo de Trabajo</title><path d="M63.33,69.19c5.81.13,10.74.64,15.37,2.75a20.34,20.34,0,0,1,7,5.39c.11.12.31.28.29.38-.39,1.92,1.38,3,1.82,4.51a14.67,14.67,0,0,1-.33,8.44,22.09,22.09,0,0,1-4.26,7.5,9.08,9.08,0,0,0-1.48,2.59c-2.18,5.91-5.79,10.5-11.86,12.71-8.11,2.94-17-.51-21.37-8.51a110.54,110.54,0,0,0-6-10.41,15.44,15.44,0,0,1-2.43-11,4.76,4.76,0,0,1,1.6-3.32,1.56,1.56,0,0,0,.37-1.17A2.92,2.92,0,0,1,43,76.79c3.87-4.36,8.93-6.29,14.52-7.08C59.74,69.41,61.94,69.31,63.33,69.19Z"/><path d="M88.15,77a4.93,4.93,0,0,0,2.15-4.92c-.17-2.15,0-4.32,0-6.49,0-3.55.11-7.11-.18-10.64a6.82,6.82,0,0,0-1.9-3.68c-2.41-2.59-5.58-4-8.88-5.2L78,45.68c-1.42-.45-1.6-1.21-.63-2.36a20.6,20.6,0,0,1,11.49-6.77,42.22,42.22,0,0,1,21.64.52,20.09,20.09,0,0,1,9.71,6.31c.08.09.25.19.24.27-.31,2.3,2,3.56,2.25,5.64.83,5.85-1.23,10.71-4.89,15.09a8.1,8.1,0,0,0-1.37,2.38c-2.33,6.41-6.26,11.27-13,13.22C98,81.55,92.89,80.45,88.15,77Z"/><path d="M40.2,76.95a16.54,16.54,0,0,1-12.56,3.57c-8.35-1.12-13.13-6.42-15.85-14a6.34,6.34,0,0,0-1.13-2c-3.28-3.8-5.37-8.07-5.24-13.2,0-1.88.15-3.78,1.91-5.06a1.08,1.08,0,0,0,.24-.88,3.13,3.13,0,0,1,1.18-2.77c3.62-3.89,8.21-5.79,13.33-6.6a41.87,41.87,0,0,1,19.71,1.18A19.93,19.93,0,0,1,51,43.41c.87,1,.66,1.84-.6,2.23a28.45,28.45,0,0,0-8.77,4.23,8.38,8.38,0,0,0-3.7,7.53c.21,5.26.17,10.53.18,15.79A3.71,3.71,0,0,0,40.2,76.95Z"/><path d="M53.57,30.72c0,2.86,0,5.72,0,8.57a2.68,2.68,0,0,1-.85,1.83c-.7.55-1.24-.19-1.72-.69-3.55-3.71-8.07-5.44-13-6.27a47.33,47.33,0,0,0-19.78.65,21,21,0,0,0-10.3,5.81c-.33.34-1.09.67-1.42.51a1.86,1.86,0,0,1-.89-1.38c-.1-6-.17-11.92-.11-17.88a4.51,4.51,0,0,1,1.17-2.58,16.21,16.21,0,0,1,7.46-4.72,48.34,48.34,0,0,1,31,0,17.54,17.54,0,0,1,7.29,4.57,4.16,4.16,0,0,1,1.22,3.09c0,2.82,0,5.63,0,8.45ZM29.51,31a8.44,8.44,0,1,0,0-16.87,8.44,8.44,0,1,0,0,16.87Z"/><path d="M74.71,30.67c0-2.78,0-5.55,0-8.33A4.39,4.39,0,0,1,76.1,19,19.82,19.82,0,0,1,85,14a48.79,48.79,0,0,1,29.14.52,17.89,17.89,0,0,1,7.52,4.66,4.25,4.25,0,0,1,1.25,3.09c-.05,5.72-.07,11.43-.16,17.15A2.3,2.3,0,0,1,122.1,41a1.51,1.51,0,0,1-1.47-.17c-4-4.41-9.32-6.15-15-6.93a47.05,47.05,0,0,0-18.22.9,21.26,21.26,0,0,0-10.22,5.73c-.36.37-1.24.77-1.49.59a2.37,2.37,0,0,1-.92-1.63c-.09-2.94,0-5.88,0-8.82Zm24,.37a8.44,8.44,0,1,0-8.39-8.66A8.39,8.39,0,0,0,98.71,31Z"/><path d="M88.14,64.58c0,2.9,0,5.8,0,8.69a2.24,2.24,0,0,1-.87,1.65c-.3.18-1.2-.25-1.58-.64C82.06,70.55,77.5,68.8,72.55,68a47.26,47.26,0,0,0-19.9.69,20.84,20.84,0,0,0-10.09,5.72c-.35.37-1.19.73-1.51.56a2,2,0,0,1-.86-1.52c-.08-5.8-.08-11.59-.12-17.39a4.16,4.16,0,0,1,1.26-3.07c3-3.15,6.91-4.7,11.06-5.66a48.46,48.46,0,0,1,27.82,1.33,17.8,17.8,0,0,1,6.67,4.22,4.45,4.45,0,0,1,1.35,3.41c0,2.78,0,5.55,0,8.33ZM72.59,56.45A8.44,8.44,0,1,0,64,64.85,8.36,8.36,0,0,0,72.59,56.45Z"/><path d="M27.45,24.69H24c-.68,0-1.07-.26-1.07-1,0-3.78-.37-3.1,2.93-3.18.48,0,1,0,1.58,0,0-1.22,0-2.31,0-3.4,0-.77.27-1.11,1.07-1.1,3.71,0,3-.42,3.06,2.88,0,1.62,0,1.62,1.69,1.63,3.33,0,2.86-.37,2.91,3.08,0,.81-.38,1.1-1.11,1.09a22.62,22.62,0,0,0-2.69,0,1.14,1.14,0,0,0-.77.77,17.15,17.15,0,0,0,0,2.32c0,.28.09.65-.06.84-.86,1.14-2.1.34-3.15.48-.26,0-.83-.59-.87-.95A34,34,0,0,1,27.45,24.69Z"/><path d="M100.85,20.51c1.24,0,2.3,0,3.35,0,.83,0,1.16.34,1.15,1.17,0,3.47.38,3-2.83,3h-1.67c0,1.15,0,2.23,0,3.31,0,.91-.33,1.23-1.22,1.21-3.39-.1-2.88.49-2.91-2.91,0-1.6,0-1.6-1.59-1.6H95c-3.08,0-3.06,0-2.9-3.12,0-.73.34-1.05,1-1.06.86,0,1.71,0,2.57,0s1.08-.2,1-1a5.66,5.66,0,0,1,0-1.1c.09-.78,0-2.14.35-2.24a9.23,9.23,0,0,1,3.25-.12c.19,0,.48.61.5.95C100.89,18.14,100.85,19.24,100.85,20.51Z"/><path d="M66.23,58.5c0,1.27,0,2.32,0,3.38,0,.82-.32,1.16-1.17,1.14-3.42-.07-3,.43-3-2.85,0-.48,0-1,0-1.67-1.18,0-2.26,0-3.34,0-.79,0-1.2-.26-1.18-1.14.09-3.45-.48-3,3-3h1.57c0-1.14,0-2.23,0-3.31,0-.89.34-1.22,1.24-1.2,3.31.07,2.9-.46,2.94,2.92,0,.48,0,1,0,1.59,1.19,0,2.24,0,3.28,0,.87,0,1.25.29,1.23,1.21-.09,3.33.48,2.94-2.89,3Z"/></svg>