<svg id="Layer_2" data-name="Layer 2" xmlns="http://www.w3.org/2000/svg" viewBox="0 0 115.43 117.3"><title>Finanzas</title><path d="M54,80.11,31,57c-.42.38-.85.75-1.25,1.16Q18.2,69.82,6.63,81.46c-.89.9-1.39.94-2.24,0C3.09,80,1.63,78.62.19,77.17c.31-.33.55-.6.8-.86Q15.55,61.77,30.09,47.2c.89-.9,1.35-.89,2.24,0,7,7.1,14.1,14.15,21.16,21.21.23.23.49.43.83.72.38-.35.75-.67,1.09-1L97.87,25.66c1.14-1.14,1.14-1.14,0-2.29q-4.31-4.31-8.63-8.6c-.37-.37-.81-.67-1.22-1l.21-.33h1.69c8,0,16.08,0,24.12,0,.86,0,1.27.15,1.26,1.15,0,8.45,0,16.91,0,25.36,0,.19,0,.38-.07.88l-6.35-6.45c-1.14-1.15-2.33-2.25-3.41-3.45-.75-.83-1.23-.87-2.06,0Q89.2,45.11,75,59.26L55.25,78.94C54.93,79.25,54.6,79.56,54,80.11Z"/><path d="M104.41,32.95c2.86,2.9,5.48,5.79,8.37,8.38a7.59,7.59,0,0,1,2.64,6.33c-.11,21.68-.07,43.36-.07,65,0,3-1.56,4.57-4.61,4.58-2.32,0-4.64,0-7,0A4,4,0,0,1,99.5,113q0-37,0-74a3.19,3.19,0,0,1,.82-1.91C101.58,35.73,102.93,34.45,104.41,32.95Z"/><path d="M95.46,42.07c0,8.91,0,17.57,0,26.23q0,21.95,0,43.9c0,3.71-1.38,5.09-5.11,5.07-2.2,0-4.39,0-6.59,0a4,4,0,0,1-4.16-4.13q0-27.24,0-54.47a2.18,2.18,0,0,1,.53-1.41q7.35-7.42,14.77-14.77A6.53,6.53,0,0,1,95.46,42.07Z"/><path d="M51.24,3.75V0h6V3.81a36,36,0,0,1,11.86,3l-3.38,8.11c-2.58-.75-5-1.66-7.49-2.13a28.65,28.65,0,0,0-5.91-.19,2.06,2.06,0,0,0-2.1,1.78,2.18,2.18,0,0,0,1.36,2.43c1.94.92,4,1.68,5.91,2.57a77.9,77.9,0,0,1,7.38,3.5c6.85,4,6.14,15.12-.79,18.61a28.33,28.33,0,0,1-5.73,1.91c-.84.21-1.08.5-1.05,1.29,0,1.48,0,3,0,4.5H51.28V43.92c-2.43-.43-4.75-.75-7-1.27a37.31,37.31,0,0,1-4.71-1.54,1.29,1.29,0,0,1-.7-.93c-.05-2.94,0-5.88,0-9,1,.44,1.91.83,2.81,1.2A32.94,32.94,0,0,0,52,35.09a21.37,21.37,0,0,0,4.31-.32,2.24,2.24,0,0,0,.61-4.2c-2.31-1.09-4.71-2-7-3.12A51.8,51.8,0,0,1,43,23.9c-3.85-2.59-4.66-6.58-4.1-10.89s3.21-6.7,7.1-8C47.66,4.51,49.42,4.2,51.24,3.75Z"/><path d="M31.17,60c1.44,1.46,2.82,2.79,4.09,4.2a2.49,2.49,0,0,1,.48,1.55q0,22.38,0,44.76c0,1,0,1.91,0,2.86a3.92,3.92,0,0,1-3.91,3.88c-2.69.06-5.39.06-8.08,0-2.33-.06-3.85-1.81-3.85-4.3q0-17.22,0-34.44c0-2.11,0-4.23,0-6.34a2,2,0,0,1,.35-1.24C23.84,67.3,27.45,63.72,31.17,60Z"/><path d="M75.56,62.13q0,.67,0,1.33,0,24.37,0,48.73c0,3.71-1.38,5.09-5.1,5.08-2.15,0-4.31,0-6.46,0A4,4,0,0,1,59.7,113q0-17.22,0-34.43a2.07,2.07,0,0,1,.4-1.34Q67.64,69.59,75.24,62Z"/><path d="M54,83.25l1.7-1.52c0,.66,0,1.09,0,1.52q0,14.54,0,29.08c0,3.53-1.43,5-5,4.95-2.28,0-4.56,0-6.83,0a3.91,3.91,0,0,1-4-4q0-21.93,0-43.87a2.2,2.2,0,0,1,.06-.36Z"/><path d="M.16,80.16l5.17,5.48L15.5,75.41l.3.17c0,.34.06.69.06,1q0,18.08,0,36.17c0,2.88-1.58,4.48-4.44,4.49-2.44,0-4.89,0-7.33,0a3.92,3.92,0,0,1-4.08-4Q0,97,0,80.75A4.6,4.6,0,0,1,.16,80.16Z"/></svg>