<svg id="Layer_2" data-name="Layer 2" xmlns="http://www.w3.org/2000/svg" viewBox="0 0 128 128"><defs><style>.cls-1{fill:#37ac94;}</style></defs><title>CONSULTORIOS 2</title><path d="M15.83,112c0-.85,0-1.65,0-2.45q0-44.6,0-89.21A12.8,12.8,0,0,1,16,18.25a3.44,3.44,0,0,1,3.28-2.88c5.82,0,11.65,0,17.33,0L32.4,26.47H24.94c-2.26,0-2.8.52-2.8,2.76q0,5.89,0,11.77c0,1.94.58,2.53,2.53,2.54,3.07,0,6.15,0,9.22,0a1.25,1.25,0,0,1,1.39.82,32.27,32.27,0,0,0,9.38,12.19A2.05,2.05,0,0,1,45.26,58c0,4,0,8.09,0,12.14,0,1.84.65,2.51,2.46,2.51,3.12,0,6.23,0,9.35,0,1.77,0,2.44-.65,2.46-2.41,0-2.42,0-4.83,0-7.25h8.86c0,1.91,0,3.88,0,5.85,0,.53,0,1.05,0,1.58.07,1.52.77,2.23,2.28,2.24q4.85,0,9.71,0a2,2,0,0,0,2.29-2.33c0-4.09,0-8.17,0-12.26a1.81,1.81,0,0,1,.75-1.63,31,31,0,0,0,9.2-11.86,1.47,1.47,0,0,1,1.63-1c3.07,0,6.15,0,9.22,0,1.7,0,2.34-.64,2.34-2.35q0-6.25,0-12.5c0-1.54-.69-2.2-2.24-2.21-2.79,0-5.57,0-8.07,0L91.44,15.41a7.05,7.05,0,0,1,.75-.06h16.14A3.4,3.4,0,0,1,112,19q0,45.57,0,91.15c0,.55,0,1.11,0,1.79Zm66.89-19.6h0c0-2.1,0-4.21,0-6.31a2,2,0,0,0-2.22-2.26q-4.85,0-9.71,0c-1.61,0-2.32.68-2.33,2.29q0,6.25,0,12.5c0,1.61.7,2.29,2.31,2.3q4.85,0,9.71,0c1.59,0,2.25-.71,2.26-2.33C82.72,96.49,82.71,94.43,82.71,92.37Zm-37.43,0h0c0,2.1,0,4.21,0,6.31,0,1.49.68,2.19,2.13,2.21q5,0,9.95,0a1.92,1.92,0,0,0,2.18-2.18q.05-6.37,0-12.74a2,2,0,0,0-2.21-2.17q-4.91,0-9.83,0a2,2,0,0,0-2.23,2.26C45.27,88.16,45.29,90.26,45.29,92.37ZM36.37,64c0-2.06,0-4.12,0-6.19,0-1.68-.65-2.33-2.36-2.34q-4.79,0-9.58,0c-1.62,0-2.27.67-2.28,2.3q0,6.25,0,12.49c0,1.6.69,2.29,2.3,2.3q4.85,0,9.7,0c1.51,0,2.21-.74,2.22-2.26C36.38,68.25,36.37,66.15,36.37,64Zm55.26.08h0c0,2.1,0,4.21,0,6.31a1.94,1.94,0,0,0,2.17,2.18q4.91,0,9.83,0c1.47,0,2.2-.7,2.21-2.14q0-6.43,0-12.86a1.85,1.85,0,0,0-2.1-2.09q-5,0-9.95,0c-1.48,0-2.13.69-2.15,2.16C91.62,59.84,91.63,62,91.63,64.12ZM36.37,92.36h0c0-2.06,0-4.12,0-6.19,0-1.67-.69-2.37-2.34-2.38q-4.79,0-9.58,0c-1.59,0-2.29.7-2.29,2.3q0,6.25,0,12.5c0,1.63.64,2.28,2.28,2.29q4.79,0,9.58,0c1.72,0,2.34-.64,2.35-2.33C36.38,96.48,36.37,94.42,36.37,92.36Zm55.26,0c0,2.06,0,4.12,0,6.19,0,1.69.65,2.33,2.36,2.34q4.79,0,9.58,0c1.62,0,2.27-.67,2.28-2.3q0-6.25,0-12.5c0-1.6-.69-2.29-2.3-2.3q-4.85,0-9.7,0c-1.51,0-2.2.73-2.21,2.26C91.62,88.15,91.63,90.26,91.63,92.36Z"/><path d="M64,115.38H120.3c2.2,0,2.7.49,2.71,2.69,0,1.42,0,2.83,0,4.25,0,1.87-.59,2.45-2.46,2.45H7.82C5.44,124.78,5,124.34,5,122c0-1.42,0-2.83,0-4.25,0-1.72.62-2.33,2.34-2.34H64Z"/><path d="M64,3.46a28.11,28.11,0,1,1-28.11,28A28.18,28.18,0,0,1,64,3.46Zm0,3.71A24.39,24.39,0,1,0,88.38,31.53,24.34,24.34,0,0,0,64,7.17Z"/><path d="M58,37.59H47.7c-2,0-2.59-.62-2.59-2.6q0-3.52,0-7c0-1.71.64-2.35,2.33-2.35H58c0-.57,0-1,0-1.43,0-3.07,0-6.15,0-9.22,0-1.54.68-2.23,2.2-2.24q3.82,0,7.65,0A1.92,1.92,0,0,1,70,14.87c0,3.07,0,6.15,0,9.22,0,.44,0,.87,0,1.42.59,0,1.07.07,1.54.07h9c1.69,0,2.38.67,2.38,2.32q0,3.7,0,7.4c0,1.56-.72,2.27-2.31,2.28-3,0-6,0-9,0H70c0,.55,0,1,0,1.41,0,3,0,6.07,0,9.1,0,1.68-.68,2.37-2.33,2.38H60.5c-1.83,0-2.5-.65-2.5-2.46,0-3,0-5.91,0-8.86C58,38.69,58,38.22,58,37.59Z"/><path class="cls-1" d="M18.41,49l11,4.73"/></svg>