<svg id="Layer_1" data-name="Layer 1" xmlns="http://www.w3.org/2000/svg" viewBox="0 0 128 128"><title>Notificaciones</title><path d="M82.83,98.05C67.47,97.81,56.05,96.67,45,93.21a28.28,28.28,0,0,1-6.17-2.84c-1.93-1.17-2-2.77-.18-4.32,9.51-7.91,12.52-18.74,13.25-30.4.67-10.74,4.3-19.86,12.91-26.67a8.85,8.85,0,0,1,1.72-1.17c2.73-1.25,4.63-2.66,5-6.27.46-4.21,4.93-6.81,9.09-6.35a8.91,8.91,0,0,1,7.76,8.15,3.93,3.93,0,0,0,1.42,2.75c11.61,6.12,16.75,16.15,17.49,28.79a77,77,0,0,0,6.8,26.93,21.71,21.71,0,0,0,2.57,4c1.94,2.62,1.91,4.38-1.07,5.72a50.3,50.3,0,0,1-12.06,4C95.45,96.81,87.24,97.52,82.83,98.05Z"/><path d="M50.78,36.65l-4.6,11.17H40c-7.63,0-15.26,0-22.89,0-3.84,0-6.15-2-6.28-5.27s2.16-5.81,6.07-5.85C28.11,36.58,39.29,36.65,50.78,36.65Z"/><path d="M45.31,55c.08.54.1.64.1.74,0,9.92-.22,10.17-9.88,10.17-6.15,0-12.29,0-18.44,0-4,0-6.32-2.1-6.26-5.52s2.42-5.37,6.44-5.38C26.58,55,35.88,55,45.31,55Z"/><path d="M86.21,103.39l17.73-2.58a8.6,8.6,0,0,1-2.59,9.54,8.49,8.49,0,0,1-9.67,1.56A8.69,8.69,0,0,1,86.21,103.39Z"/></svg>