<svg id="Layer_1" data-name="Layer 1" xmlns="http://www.w3.org/2000/svg" viewBox="0 0 128 128"><title>Pacientes</title><path d="M87.15,114.5H44.48V102h1.25c6.35,0,12.7,0,19,0,4.71,0,8-3.34,7.8-7.78a7.33,7.33,0,0,0-6.86-7c-1.83-.09-3.67,0-5.63,0l-9-33.71c.44,0,.78,0,1.13,0,9.24,0,18.47-.05,27.71,0a25.38,25.38,0,0,1,13.8,3.71,15.07,15.07,0,0,1,7.39,13.08c.13,13.06.06,26.12,0,39.18,0,4.67-4.51,7.46-8.41,5.24a5.51,5.51,0,0,1-2.85-4.58c-.05-.65,0-1.3,0-1.95q0-20.35,0-40.69V66.11H87.15Z"/><path d="M35.34,99.47c0-.36,0-.68,0-1,.24-13.73.5-27.47.7-41.2a1.6,1.6,0,0,1,1.42-1.82,58.44,58.44,0,0,1,11.18-1.87c.61,2.27,1.23,4.51,1.83,6.76,2.47,9.29,4.91,18.58,7.43,27.86.61,2.25,1.55,4.41,2.2,6.66a23.43,23.43,0,0,1,.58,3.83c.06.57-.19.93-.88.93q-12.06,0-24.12,0A1.73,1.73,0,0,1,35.34,99.47Z"/><path d="M64.74,13.09a17.42,17.42,0,1,1-17.4,17.44A17.41,17.41,0,0,1,64.74,13.09Zm0,32.44a15,15,0,1,0-15-15A15,15,0,0,0,64.72,45.53Z"/><path d="M33.69,57.37l-.75,42.19c-3.05.72-5.47-1.13-5.81-4.37a14.44,14.44,0,0,1,0-1.51c0-8.22.12-16.45,0-24.67C27,65,30.06,59.56,33.69,57.37Z"/><path d="M61,89.61c1.71,0,3.26-.09,4.8,0a5,5,0,0,1-.11,9.92c-.85.06-1.71,0-2.63,0C63.25,96.05,62.13,92.9,61,89.61Z"/></svg>