<svg id="Layer_2" data-name="Layer 2" xmlns="http://www.w3.org/2000/svg" viewBox="0 0 128 128"><title>RECETA 2</title><path d="M47.06,14.36c0-1.93,0-3.66,0-5.38.09-4.21,2.76-6.81,7-6.82H78.43c4.29,0,6.92,2.62,7,6.94,0,1.72,0,3.44,0,5.26h1.45c4.62,0,9.25,0,13.87,0A6.43,6.43,0,0,1,107.33,21q0,48.75,0,97.5c0,4.37-2.66,7-7,7H32.36c-4.27,0-6.93-2.68-6.94-7q0-48.69,0-97.38a6.45,6.45,0,0,1,6.83-6.83c4.45,0,8.9,0,13.36,0ZM31.64,69.93h0q0,24,0,48c0,1,.15,1.46,1.32,1.45q33.38,0,66.76,0c1.16,0,1.45-.35,1.45-1.47,0-8.43,0-16.85,0-25.28q0-35.19,0-70.39c0-1.22-.29-1.64-1.57-1.62q-6,.12-12.05,0c-1.45,0-2.64.06-3,1.76a1.29,1.29,0,0,1-.51.74c-1.66,1.05-1.61,2.68-1.51,4.34a14.44,14.44,0,0,1,0,1.56,3.19,3.19,0,0,1-3.23,3.21q-12.9,0-25.8,0a3.16,3.16,0,0,1-3.18-3.24c0-1,.08-2.09-.05-3.11a4.38,4.38,0,0,0-.79-1.73,16.59,16.59,0,0,1-1.73-2.37,1.64,1.64,0,0,0-1.85-1.13c-4.19,0-8.38.07-12.57,0-1.28,0-1.68.27-1.67,1.63C31.66,38.13,31.64,54,31.64,69.93ZM79.08,8.48H53.45v5.81H79.08Z"/><path d="M70.41,55.43c0,2,0,3.76,0,5.52s-.7,2.57-2.59,2.58c-1,0-2.07,0-3.11,0-1.58,0-2.3-.72-2.34-2.3,0-1.85,0-3.71,0-5.8H57.29c-2.49,0-3-.55-3-3,0-.86,0-1.73,0-2.59,0-1.65.72-2.37,2.37-2.4,1.85,0,3.7,0,5.74,0,0-1.84,0-3.55,0-5.27,0-2.24.61-2.84,2.84-2.85h2.2c2.43,0,3,.57,3,3,0,1.64,0,3.28,0,5.16,1.87,0,3.66,0,5.45,0a3.68,3.68,0,0,1,1.93.53c1.1.8,1.11,6.1,0,6.93a3.31,3.31,0,0,1-1.79.54C74.21,55.48,72.41,55.43,70.41,55.43Z"/><path d="M66.43,82.26c-7.82,0-15.63,0-23.45,0A2.93,2.93,0,0,1,41,81.54a2.34,2.34,0,0,1-.31-1.87c.23-1,1.1-1.24,2-1.24H89.52c.22,0,.43,0,.65,0a2,2,0,0,1,2.08,2,1.91,1.91,0,0,1-2.12,1.8c-5,0-9.93,0-14.9,0H66.43Z"/><path d="M66.25,98.64H43.84a14.74,14.74,0,0,1-1.68,0,1.59,1.59,0,0,1-1.58-1.71A3.47,3.47,0,0,1,41.83,95c.31-.28,1-.19,1.5-.19H89.18a10.49,10.49,0,0,1,1.16,0,2,2,0,0,1,1.91,2,1.91,1.91,0,0,1-2,1.74c-3.37,0-6.74,0-10.1,0Z"/><path d="M66.38,86.67q11.66,0,23.32,0c.54,0,1.26,0,1.59.31a2.49,2.49,0,0,1,.86,1.81,2.76,2.76,0,0,1-1.45,1.56,5,5,0,0,1-2,.13H43.32a8.74,8.74,0,0,1-.91,0,2,2,0,0,1-1.91-1.92,1.89,1.89,0,0,1,2-1.88c4.62,0,9.24,0,13.86,0h10Z"/><path d="M66.37,70.29H89.55c.39,0,.9-.12,1.14.08.59.47,1.41,1.08,1.45,1.68s-.64,1.39-1.21,1.86c-.36.29-1.08.19-1.63.19q-23.05,0-46.11,0c-.55,0-1.31,0-1.61-.27a3.25,3.25,0,0,1-1-2c0-1,.87-1.51,1.92-1.51H66.37Z"/><path d="M56.4,106.87c-4.54,0-9.07,0-13.61,0-1.81,0-2.92-1.61-1.94-2.88a2.81,2.81,0,0,1,2-.91C51.89,103,61,103,70,103a2,2,0,0,1,2.22,1.85c0,1.15-.85,2-2.24,2C65.47,106.88,60.93,106.87,56.4,106.87Z"/></svg>