<svg id="Layer_1" data-name="Layer 1" xmlns="http://www.w3.org/2000/svg" viewBox="0 0 128 128"><title>Pendientes</title><path d="M110.25,19.94V108.6H21.6V19.94c12.29-.11,24.59.12,36.92-.13a7.35,7.35,0,0,0,2.81,5.89,7.19,7.19,0,0,0,4.84,1.61,7.44,7.44,0,0,0,7.17-7.49C85.63,20.06,97.93,19.83,110.25,19.94ZM29,101.2h73.87V27.31H79a.5.5,0,0,0-.49.29,14.11,14.11,0,0,1-4.4,4.61,14.78,14.78,0,0,1-20.77-4.52.68.68,0,0,0-.66-.39H29Z"/><path d="M91.79,67.95A25.87,25.87,0,1,1,65.9,42.09,25.89,25.89,0,0,1,91.79,67.95ZM65.93,86.44A18.48,18.48,0,1,0,47.44,68,18.49,18.49,0,0,0,65.93,86.44Z"/><path d="M61.16,81.58,56,76.42l.23-.25q2.86-2.86,5.73-5.72a.86.86,0,0,0,.27-.68q0-8.06,0-16.11v-.46h7.39v.4q0,9.59,0,19.18a.85.85,0,0,1-.2.55q-4,4.06-8.09,8.11Z"/></svg>